<?xml version="1.0" encoding="utf-8"?>
<!-- Generator: Adobe Illustrator 19.0.0, SVG Export Plug-In . SVG Version: 6.00 Build 0)  -->
<svg version="1.1" id="Layer_1" xmlns="http://www.w3.org/2000/svg" xmlns:xlink="http://www.w3.org/1999/xlink" x="0px" y="0px"
	 viewBox="0 0 361 135" style="enable-background:new 0 0 361 135;" xml:space="preserve">
<style type="text/css">
	.st0{fill:#E33A89;}
</style>
<path id="XMLID_20_" class="st0" d="M305.1,0h-4.4c0.2,1,0.2,1.5,0.2,2.4c0,5.3-3,9.5-6.7,9.5c-3.7,0-6.7-4.2-6.7-9.5
	c0-0.9,0.1-1.4,0.2-2.4h-3.9c0.1,0,0.1,0.9,0.1,1.4c0,5.3-3,9.5-6.7,9.5c-3.7,0-6.7-4.2-6.7-9.5c0-0.5,0-1.4,0.1-1.4h-4.8
	c0.1,0,0.1,0.9,0.1,1.4c0,5.3-3,9.5-6.7,9.5c-3.7,0-6.7-4.2-6.7-9.5c0-0.5,0-1.4,0.1-1.4h-3.8c0.1,0,0.1,0.9,0.1,1.4
	c0,5.3-3,9.5-6.7,9.5c-3.7,0-6.7-4.2-6.7-9.5c0-0.5,0-1.4,0.1-1.4h-4.8c0.1,0,0.1,0.9,0.1,1.4c0,5.3-3,9.5-6.7,9.5
	c-3.7,0-6.7-4.2-6.7-9.5c0-0.5,0-1.4,0.1-1.4h-3.8c0.1,0,0.1,0.9,0.1,1.4c0,5.3-3,9.5-6.7,9.5c-3.7,0-6.7-4.2-6.7-9.5
	c0-0.5,0-1.4,0.1-1.4h-4.8c0.1,0,0.1,0.9,0.1,1.4c0,5.3-3,9.5-6.7,9.5c-3.7,0-6.7-4.2-6.7-9.5c0-0.5,0-1.4,0.1-1.4h-3.8
	c0.1,0,0.1,0.9,0.1,1.4c0,5.3-3,9.5-6.7,9.5c-3.7,0-6.7-4.2-6.7-9.5c0-0.5,0-1.4,0.1-1.4h-3.8c0.1,0,0.1,0.9,0.1,1.4
	c0,5.3-3,9.5-6.7,9.5c-3.7,0-6.7-4.2-6.7-9.5c0-0.5,0-1.4,0.1-1.4h-4.8c0.1,0,0.1,0.9,0.1,1.4c0,5.3-3,9.5-6.7,9.5
	c-3.7,0-6.7-4.2-6.7-9.5c0-0.5,0-1.4,0.1-1.4h-3.8c0.1,0,0.1,0.9,0.1,1.4c0,5.3-3,9.5-6.7,9.5c-3.7,0-6.7-4.2-6.7-9.5
	c0-0.5,0-1.4,0.1-1.4h-4.8c0.1,0,0.1,0.9,0.1,1.4c0,5.3-3,9.5-6.7,9.5c-3.7,0-6.7-4.2-6.7-9.5c0-0.5,0-1.4,0.1-1.4h-3.8
	c0.1,0,0.1,0.9,0.1,1.4c0,5.3-3,9.5-6.7,9.5c-3.7,0-6.7-4.2-6.7-9.5c0-0.5,0-1.4,0.1-1.4h-4.8c0.1,0,0.1,0.9,0.1,1.4
	c0,5.3-3,9.5-6.7,9.5c-3.7,0-6.7-4.2-6.7-9.5c0-0.5,0-1.4,0.1-1.4H56v2c0,0-4,54.7-56,63.4V135h361V65.6C314,59.8,305.7,5,305.1,0z"
	/>
</svg>
